<?xml version="1.0" standalone="no"?>
<!DOCTYPE svg PUBLIC "-//W3C//DTD SVG 20010904//EN"
 "http://www.w3.org/TR/2001/REC-SVG-20010904/DTD/svg10.dtd">
<svg version="1.0" xmlns="http://www.w3.org/2000/svg"
 width="700.000000pt" height="700.000000pt" viewBox="0 0 700.000000 700.000000"
 preserveAspectRatio="xMidYMid meet">
<metadata>
Created by potrace 1.14, written by Peter Selinger 2001-2017
</metadata>
<g transform="translate(0.000000,700.000000) scale(0.100000,-0.100000)"
fill="#000000" stroke="none">
<path d="M3578 6995 c-2 -2 -48 -6 -102 -9 -54 -3 -117 -8 -140 -11 -22 -3
-63 -8 -91 -11 -96 -9 -121 -12 -210 -28 -49 -8 -108 -18 -130 -22 -22 -3
-101 -21 -175 -41 -74 -19 -139 -35 -145 -37 -124 -31 -379 -136 -520 -213
-203 -112 -324 -209 -520 -417 -26 -28 -89 -114 -139 -190 -122 -190 -213
-436 -251 -681 -2 -11 -6 -33 -9 -50 -4 -16 -9 -57 -11 -90 -3 -33 -7 -69 -9
-81 -2 -12 -7 -45 -11 -75 -3 -30 -8 -65 -10 -79 -5 -24 -8 -47 -20 -155 -3
-27 -8 -66 -10 -86 -3 -20 -7 -54 -10 -75 -2 -21 -7 -55 -10 -74 -3 -19 -8
-53 -10 -74 -3 -21 -7 -55 -9 -75 -3 -20 -12 -92 -21 -161 -8 -69 -17 -138
-20 -155 -2 -16 -9 -73 -15 -125 -6 -52 -13 -106 -16 -120 -2 -14 -6 -45 -9
-70 -3 -25 -7 -58 -10 -75 -2 -16 -7 -52 -10 -80 -3 -27 -8 -66 -11 -85 -3
-19 -7 -48 -9 -65 -2 -16 -6 -56 -10 -88 -3 -32 -8 -68 -11 -80 -4 -22 -13
-95 -19 -152 -2 -16 -4 -32 -5 -35 -1 -3 -2 -9 -1 -13 1 -5 -3 -36 -8 -70 -6
-34 -12 -82 -15 -107 -3 -25 -12 -99 -21 -165 -8 -66 -17 -138 -20 -160 -3
-22 -7 -49 -9 -60 -2 -11 -7 -47 -10 -80 -4 -33 -9 -76 -11 -95 -10 -76 -17
-126 -20 -150 -2 -14 -6 -52 -10 -85 -4 -33 -9 -69 -11 -79 -2 -11 -6 -42 -9
-70 -9 -79 -14 -118 -20 -156 -22 -143 -27 -371 -10 -481 15 -99 49 -228 70
-270 9 -16 13 -29 10 -29 -7 0 70 -153 103 -204 107 -164 253 -311 417 -420
72 -48 201 -126 209 -126 2 0 38 -16 79 -35 42 -20 79 -35 82 -35 3 0 18 -6
33 -13 48 -25 280 -99 352 -113 14 -3 41 -9 60 -14 86 -22 321 -60 332 -54 4
3 8 2 8 -3 0 -4 10 -8 23 -9 12 0 54 -4 92 -8 170 -17 258 -21 545 -21 274 0
426 6 545 20 22 3 67 7 100 9 33 3 60 6 60 6 0 1 14 3 30 5 33 4 111 16 135
21 8 2 31 6 50 8 136 19 513 120 578 155 12 7 22 9 22 6 0 -3 17 4 37 15 21
11 41 20 46 20 14 0 197 91 274 137 358 210 607 498 753 868 18 44 34 88 35
98 2 9 6 21 9 25 3 5 7 19 10 33 3 13 12 47 20 74 7 28 16 67 19 85 3 19 10
64 15 100 6 36 14 85 17 110 3 25 8 56 10 70 2 14 7 45 10 70 3 25 7 54 9 66
4 19 13 88 22 159 2 17 8 59 13 95 21 141 -4 250 -68 297 -68 50 -77 51 -724
51 -520 0 -613 -2 -658 -15 -158 -46 -209 -140 -254 -463 -3 -25 -8 -52 -10
-60 -2 -8 -7 -35 -10 -58 -8 -57 -42 -166 -67 -217 -21 -41 -87 -135 -117
-164 -81 -81 -205 -150 -331 -186 -144 -42 -221 -50 -440 -50 -169 1 -204 4
-317 26 -29 6 -55 10 -58 10 -2 0 -25 8 -50 19 -25 11 -49 20 -53 21 -4 1 -15
4 -24 7 -10 2 -18 8 -18 13 0 5 -3 9 -7 8 -15 -2 -53 13 -53 21 0 5 -8 11 -18
14 -32 11 -119 106 -150 164 -16 31 -35 81 -42 110 -12 53 -16 173 -6 227 4
28 23 160 32 230 21 168 26 208 29 225 2 9 6 43 10 75 4 33 9 68 11 79 2 10 6
44 10 75 3 31 8 65 10 76 3 11 7 43 9 70 3 28 7 61 10 74 2 13 7 49 10 80 4
31 9 67 11 81 3 14 7 45 9 70 3 25 8 63 11 85 4 22 8 54 10 70 9 76 13 112 17
130 3 11 8 47 11 80 10 79 14 112 21 160 4 22 8 54 10 70 2 17 6 49 9 73 13
94 18 129 21 162 3 19 7 51 9 70 3 19 8 57 12 84 3 27 7 57 9 66 2 9 6 41 9
71 3 30 8 65 10 79 3 14 7 48 11 75 3 28 8 64 10 80 3 17 7 46 9 65 3 19 7 51
10 70 3 19 8 58 10 85 3 28 8 61 10 75 3 14 7 45 10 70 20 159 31 201 82 307
70 143 189 253 346 319 164 69 317 94 563 90 105 -2 201 -6 215 -9 13 -4 42
-9 65 -12 195 -28 386 -142 453 -270 54 -104 62 -256 23 -451 -42 -213 -8
-304 131 -355 51 -18 80 -19 688 -17 l635 3 49 24 c27 13 61 37 75 54 60 71
76 124 106 357 2 19 7 55 11 80 3 25 8 56 9 70 3 28 13 98 21 150 12 85 12
370 -2 432 -7 36 -16 78 -19 94 -3 16 -7 34 -9 39 -21 76 -32 107 -62 177
-110 258 -301 469 -574 637 -94 58 -321 171 -343 171 -3 0 -16 4 -29 9 -13 5
-27 10 -33 11 -5 1 -26 9 -45 17 -19 8 -42 16 -50 19 -8 2 -49 13 -90 24 -87
24 -83 24 -175 44 -38 9 -86 19 -105 21 -19 3 -48 8 -65 12 -16 3 -40 7 -52 9
-13 1 -40 5 -60 8 -48 8 -80 12 -168 21 -38 3 -88 8 -110 11 -48 6 -732 14
-737 9z"/>
</g>
</svg>
